<?xml version="1.0" standalone="no"?>
<!DOCTYPE svg PUBLIC "-//W3C//DTD SVG 20010904//EN"
 "http://www.w3.org/TR/2001/REC-SVG-20010904/DTD/svg10.dtd">
<svg version="1.0" xmlns="http://www.w3.org/2000/svg"
 width="512.000000pt" height="512.000000pt" viewBox="0 0 512.000000 512.000000"
 preserveAspectRatio="xMidYMid meet">

<g transform="translate(0.000000,512.000000) scale(0.100000,-0.100000)"
fill="#000000" stroke="none">
<path d="M467 4379 c-195 -46 -321 -249 -273 -440 30 -118 117 -215 231 -258
l56 -21 2079 0 2079 0 56 21 c116 43 202 140 232 262 35 144 -27 298 -153 382
-104 70 51 65 -2219 64 -1150 -1 -2066 -5 -2088 -10z"/>
<path d="M487 2920 c-118 -20 -234 -115 -278 -228 -31 -79 -31 -186 1 -267 32
-82 122 -173 205 -206 l60 -24 2085 0 2085 0 60 24 c42 17 78 42 121 85 78 78
107 148 107 256 0 108 -29 178 -107 256 -43 43 -79 68 -121 85 l-60 24 -2055
1 c-1130 1 -2077 -2 -2103 -6z"/>
<path d="M416 1435 c-76 -31 -122 -68 -168 -136 -128 -185 -57 -434 152 -533
l65 -31 2095 0 2095 0 67 32 c115 54 185 147 209 276 30 163 -72 335 -236 396
l-56 21 -2082 0 -2082 0 -59 -25z"/>
</g>
</svg>
