<?xml version="1.0" standalone="no"?>
<!DOCTYPE svg PUBLIC "-//W3C//DTD SVG 20010904//EN"
 "http://www.w3.org/TR/2001/REC-SVG-20010904/DTD/svg10.dtd">
<svg version="1.0" xmlns="http://www.w3.org/2000/svg"
 width="150.000000pt" height="200.000000pt" viewBox="0 0 150.000000 200.000000"
 preserveAspectRatio="xMidYMid meet">

<g transform="translate(0.000000,200.000000) scale(0.100000,-0.100000)"
fill="#000000" stroke="none">
<path d="M650 1655 c-152 -43 -262 -167 -290 -327 -46 -261 196 -504 458 -458
92 16 169 58 234 129 77 82 102 148 102 266 0 101 -18 158 -73 239 -87 127
-278 193 -431 151z"/>
<path d="M645 749 c-350 -50 -575 -300 -630 -701 l-6 -48 745 0 746 0 0 38
c-1 68 -20 176 -46 254 -81 245 -309 417 -607 457 -88 12 -116 12 -202 0z"/>
</g>
</svg>
